<svg width="670" height="76" viewBox="0 0 670 76" fill="none" xmlns="http://www.w3.org/2000/svg">
<path d="M33.8779 0.894531H636.122V75.4259H33.8779V0.894531Z" fill="#2F2E2D"/>
<path d="M27.1023 7.67011H33.8779V14.4457H27.1023V7.67011Z" fill="#2F2E2D"/>
<path d="M642.898 7.67011H636.122V14.4457H642.898V7.67011Z" fill="#2F2E2D"/>
<path d="M27.1023 14.4457H33.8779V21.2213H27.1023V14.4457Z" fill="#2F2E2D"/>
<path d="M642.898 14.4457H636.122V21.2213H642.898V14.4457Z" fill="#2F2E2D"/>
<path d="M20.3267 14.4457H27.1023V21.2213H20.3267V14.4457Z" fill="#2F2E2D"/>
<path d="M649.673 14.4457H642.898V21.2213H649.673V14.4457Z" fill="#2F2E2D"/>
<path d="M27.1023 21.2213H33.8779V27.9968H27.1023V21.2213Z" fill="#2F2E2D"/>
<path d="M642.898 21.2213H636.122V27.9968H642.898V21.2213Z" fill="#2F2E2D"/>
<path d="M20.3267 21.2213H27.1023V27.9968H20.3267V21.2213Z" fill="#2F2E2D"/>
<path d="M649.673 21.2213H642.898V27.9968H649.673V21.2213Z" fill="#2F2E2D"/>
<path d="M13.5512 21.2213H20.3267V27.9968H13.5512V21.2213Z" fill="#2F2E2D"/>
<path d="M656.449 21.2213H649.673V27.9968H656.449V21.2213Z" fill="#2F2E2D"/>
<path d="M27.1023 27.9968H33.8779V34.7724H27.1023V27.9968Z" fill="#2F2E2D"/>
<path d="M642.898 27.9968H636.122V34.7724H642.898V27.9968Z" fill="#2F2E2D"/>
<path d="M27.1023 34.7724H33.8779V41.548H27.1023V34.7724Z" fill="#2F2E2D"/>
<path d="M642.898 34.7724H636.122V41.548H642.898V34.7724Z" fill="#2F2E2D"/>
<path d="M20.3267 27.9968H27.1023V34.7724H20.3267V27.9968Z" fill="#2F2E2D"/>
<path d="M649.673 27.9968H642.898V34.7724H649.673V27.9968Z" fill="#2F2E2D"/>
<path d="M20.3267 34.7724H27.1023V41.548H20.3267V34.7724Z" fill="#2F2E2D"/>
<path d="M649.673 34.7724H642.898V41.548H649.673V34.7724Z" fill="#2F2E2D"/>
<path d="M13.5512 27.9968H20.3267V34.7724H13.5512V27.9968Z" fill="#2F2E2D"/>
<path d="M656.449 27.9968H649.673V34.7724H656.449V27.9968Z" fill="#2F2E2D"/>
<path d="M13.5512 34.7724H20.3267V41.548H13.5512V34.7724Z" fill="#2F2E2D"/>
<path d="M656.449 34.7724H649.673V41.548H656.449V34.7724Z" fill="#2F2E2D"/>
<path d="M6.77558 27.9968H13.5512V34.7724H6.77558V27.9968Z" fill="#2F2E2D"/>
<path d="M663.224 27.9968H656.449V34.7724H663.224V27.9968Z" fill="#2F2E2D"/>
<path d="M6.77558 34.7724H13.5512V41.548H6.77558V34.7724Z" fill="#2F2E2D"/>
<path d="M663.224 34.7724H656.449V41.548H663.224V34.7724Z" fill="#2F2E2D"/>
<path d="M0 34.7724H6.77558V41.548H0V34.7724Z" fill="#2F2E2D"/>
<path d="M670 34.7724H663.224V41.548H670V34.7724Z" fill="#2F2E2D"/>
<path d="M27.1023 41.548H33.8779V48.3236H27.1023V41.548Z" fill="#2F2E2D"/>
<path d="M642.898 41.548H636.122V48.3236H642.898V41.548Z" fill="#2F2E2D"/>
<path d="M20.3267 41.548H27.1023V48.3236H20.3267V41.548Z" fill="#2F2E2D"/>
<path d="M649.673 41.548H642.898V48.3236H649.673V41.548Z" fill="#2F2E2D"/>
<path d="M13.5512 41.548H20.3267V48.3236H13.5512V41.548Z" fill="#2F2E2D"/>
<path d="M656.449 41.548H649.673V48.3236H656.449V41.548Z" fill="#2F2E2D"/>
<path d="M6.77558 41.548H13.5512V48.3236H6.77558V41.548Z" fill="#2F2E2D"/>
<path d="M663.224 41.548H656.449V48.3236H663.224V41.548Z" fill="#2F2E2D"/>
<path d="M27.1023 48.3236H33.8779V55.0992H27.1023V48.3236Z" fill="#2F2E2D"/>
<path d="M642.898 48.3236H636.122V55.0992H642.898V48.3236Z" fill="#2F2E2D"/>
<path d="M20.3267 48.3236H27.1023V55.0992H20.3267V48.3236Z" fill="#2F2E2D"/>
<path d="M649.673 48.3236H642.898V55.0992H649.673V48.3236Z" fill="#2F2E2D"/>
<path d="M13.5512 48.3236H20.3267V55.0992H13.5512V48.3236Z" fill="#2F2E2D"/>
<path d="M656.449 48.3236H649.673V55.0992H656.449V48.3236Z" fill="#2F2E2D"/>
<path d="M27.1023 55.0992H33.8779V61.8747H27.1023V55.0992Z" fill="#2F2E2D"/>
<path d="M642.898 55.0992H636.122V61.8747H642.898V55.0992Z" fill="#2F2E2D"/>
<path d="M20.3267 55.0992H27.1023V61.8747H20.3267V55.0992Z" fill="#2F2E2D"/>
<path d="M649.673 55.0992H642.898V61.8747H649.673V55.0992Z" fill="#2F2E2D"/>
<path d="M27.1023 61.8747H33.8779V68.6503H27.1023V61.8747Z" fill="#2F2E2D"/>
<path d="M642.898 61.8747H636.122V68.6503H642.898V61.8747Z" fill="#2F2E2D"/>
</svg>
