<svg width="310" height="75" viewBox="0 0 310 75" fill="none" xmlns="http://www.w3.org/2000/svg">
<path d="M33.5366 0.269531H276.463V74.05H33.5366V0.269531Z" fill="#F1F1F0"/>
<path d="M26.8293 6.97685H33.5366V13.6842H26.8293V6.97685Z" fill="#F1F1F0"/>
<path d="M283.171 6.97685H276.463V13.6842H283.171V6.97685Z" fill="#F1F1F0"/>
<path d="M26.8293 13.6842H33.5366V20.3915H26.8293V13.6842Z" fill="#F1F1F0"/>
<path d="M283.171 13.6842H276.463V20.3915H283.171V13.6842Z" fill="#F1F1F0"/>
<path d="M20.122 13.6842H26.8293V20.3915H20.122V13.6842Z" fill="#F1F1F0"/>
<path d="M289.878 13.6842H283.171V20.3915H289.878V13.6842Z" fill="#F1F1F0"/>
<path d="M26.8293 20.3915H33.5366V27.0988H26.8293V20.3915Z" fill="#F1F1F0"/>
<path d="M283.171 20.3915H276.463V27.0988H283.171V20.3915Z" fill="#F1F1F0"/>
<path d="M20.122 20.3915H26.8293V27.0988H20.122V20.3915Z" fill="#F1F1F0"/>
<path d="M289.878 20.3915H283.171V27.0988H289.878V20.3915Z" fill="#F1F1F0"/>
<path d="M13.4146 20.3915H20.122V27.0988H13.4146V20.3915Z" fill="#F1F1F0"/>
<path d="M296.585 20.3915H289.878V27.0988H296.585V20.3915Z" fill="#F1F1F0"/>
<path d="M26.8293 27.0988H33.5366V33.8061H26.8293V27.0988Z" fill="#F1F1F0"/>
<path d="M283.171 27.0988H276.463V33.8061H283.171V27.0988Z" fill="#F1F1F0"/>
<path d="M26.8293 33.8061H33.5366V40.5134H26.8293V33.8061Z" fill="#F1F1F0"/>
<path d="M283.171 33.8061H276.463V40.5134H283.171V33.8061Z" fill="#F1F1F0"/>
<path d="M20.122 27.0988H26.8293V33.8061H20.122V27.0988Z" fill="#F1F1F0"/>
<path d="M289.878 27.0988H283.171V33.8061H289.878V27.0988Z" fill="#F1F1F0"/>
<path d="M20.122 33.8061H26.8293V40.5134H20.122V33.8061Z" fill="#F1F1F0"/>
<path d="M289.878 33.8061H283.171V40.5134H289.878V33.8061Z" fill="#F1F1F0"/>
<path d="M13.4146 27.0988H20.122V33.8061H13.4146V27.0988Z" fill="#F1F1F0"/>
<path d="M296.585 27.0988H289.878V33.8061H296.585V27.0988Z" fill="#F1F1F0"/>
<path d="M13.4146 33.8061H20.122V40.5134H13.4146V33.8061Z" fill="#F1F1F0"/>
<path d="M296.585 33.8061H289.878V40.5134H296.585V33.8061Z" fill="#F1F1F0"/>
<path d="M6.70732 27.0988H13.4146V33.8061H6.70732V27.0988Z" fill="#F1F1F0"/>
<path d="M303.293 27.0988H296.585V33.8061H303.293V27.0988Z" fill="#F1F1F0"/>
<path d="M6.70732 33.8061H13.4146V40.5134H6.70732V33.8061Z" fill="#F1F1F0"/>
<path d="M303.293 33.8061H296.585V40.5134H303.293V33.8061Z" fill="#F1F1F0"/>
<path d="M0 33.8061H6.70732V40.5134H0V33.8061Z" fill="#F1F1F0"/>
<path d="M310 33.8061H303.293V40.5134H310V33.8061Z" fill="#F1F1F0"/>
<path d="M26.8293 40.5134H33.5366V47.2208H26.8293V40.5134Z" fill="#F1F1F0"/>
<path d="M283.171 40.5134H276.463V47.2208H283.171V40.5134Z" fill="#F1F1F0"/>
<path d="M20.122 40.5134H26.8293V47.2208H20.122V40.5134Z" fill="#F1F1F0"/>
<path d="M289.878 40.5134H283.171V47.2208H289.878V40.5134Z" fill="#F1F1F0"/>
<path d="M13.4146 40.5134H20.122V47.2208H13.4146V40.5134Z" fill="#F1F1F0"/>
<path d="M296.585 40.5134H289.878V47.2208H296.585V40.5134Z" fill="#F1F1F0"/>
<path d="M6.70732 40.5134H13.4146V47.2208H6.70732V40.5134Z" fill="#F1F1F0"/>
<path d="M303.293 40.5134H296.585V47.2208H303.293V40.5134Z" fill="#F1F1F0"/>
<path d="M26.8293 47.2208H33.5366V53.9281H26.8293V47.2208Z" fill="#F1F1F0"/>
<path d="M283.171 47.2208H276.463V53.9281H283.171V47.2208Z" fill="#F1F1F0"/>
<path d="M20.122 47.2208H26.8293V53.9281H20.122V47.2208Z" fill="#F1F1F0"/>
<path d="M289.878 47.2208H283.171V53.9281H289.878V47.2208Z" fill="#F1F1F0"/>
<path d="M13.4146 47.2208H20.122V53.9281H13.4146V47.2208Z" fill="#F1F1F0"/>
<path d="M296.585 47.2208H289.878V53.9281H296.585V47.2208Z" fill="#F1F1F0"/>
<path d="M26.8293 53.9281H33.5366V60.6354H26.8293V53.9281Z" fill="#F1F1F0"/>
<path d="M283.171 53.9281H276.463V60.6354H283.171V53.9281Z" fill="#F1F1F0"/>
<path d="M20.122 53.9281H26.8293V60.6354H20.122V53.9281Z" fill="#F1F1F0"/>
<path d="M289.878 53.9281H283.171V60.6354H289.878V53.9281Z" fill="#F1F1F0"/>
<path d="M26.8293 60.6354H33.5366V67.3427H26.8293V60.6354Z" fill="#F1F1F0"/>
<path d="M283.171 60.6354H276.463V67.3427H283.171V60.6354Z" fill="#F1F1F0"/>
</svg>
