<svg width="93" height="110" viewBox="0 0 93 110" fill="none" xmlns="http://www.w3.org/2000/svg">
<g id="Group 194">
<path id="Arrow 2" d="M13.0607 48.9393C12.4749 48.3535 11.5251 48.3535 10.9393 48.9393L1.3934 58.4853C0.807612 59.0711 0.807612 60.0208 1.3934 60.6066C1.97919 61.1924 2.92893 61.1924 3.51472 60.6066L12 52.1213L20.4853 60.6066C21.0711 61.1924 22.0208 61.1924 22.6066 60.6066C23.1924 60.0208 23.1924 59.0711 22.6066 58.4853L13.0607 48.9393ZM13.5 110L13.5 50L10.5 50L10.5 110L13.5 110Z" fill="#507A49"/>
<path id="Arrow 3" d="M47.0607 23.9393C46.4749 23.3536 45.5251 23.3536 44.9393 23.9393L35.3934 33.4853C34.8076 34.0711 34.8076 35.0208 35.3934 35.6066C35.9792 36.1924 36.9289 36.1924 37.5147 35.6066L46 27.1213L54.4853 35.6066C55.0711 36.1924 56.0208 36.1924 56.6066 35.6066C57.1924 35.0208 57.1924 34.0711 56.6066 33.4853L47.0607 23.9393ZM47.5 110L47.5 25L44.5 25L44.5 110L47.5 110Z" fill="#507A49"/>
<path id="Arrow 4" d="M82.0607 0.939331C81.4749 0.353546 80.5251 0.353546 79.9393 0.939331L70.3934 10.4853C69.8076 11.0711 69.8076 12.0208 70.3934 12.6066C70.9792 13.1924 71.9289 13.1924 72.5147 12.6066L81 4.12132L89.4853 12.6066C90.0711 13.1924 91.0208 13.1924 91.6066 12.6066C92.1924 12.0208 92.1924 11.0711 91.6066 10.4853L82.0607 0.939331ZM82.5 110L82.5 1.99999L79.5 1.99999L79.5 110L82.5 110Z" fill="#507A49"/>
</g>
</svg>
