<svg width="41" height="40" viewBox="0 0 41 40" fill="none" xmlns="http://www.w3.org/2000/svg">
<circle cx="20.4004" cy="20" r="20" fill="url(#paint0_linear_39_508)"/>
<path d="M17.7977 32.8C17.7932 32.6903 17.7844 32.5851 17.7844 32.4754C17.7844 28.8096 17.7844 25.1438 17.7844 21.4826C17.7844 21.3774 17.7844 21.2677 17.7844 21.1306C16.5141 21.1306 15.2659 21.1306 14 21.1306C14 19.604 14 18.1047 14 16.5781C15.2482 16.5781 16.5009 16.5781 17.7844 16.5781C17.7844 16.4501 17.7844 16.3541 17.7844 16.2581C17.7888 15.0651 17.7624 13.8767 17.8065 12.6837C17.8638 11.2485 18.274 9.93665 19.2488 8.8625C19.9898 8.04889 20.9205 7.58724 21.9658 7.35413C22.8171 7.16672 23.6772 7.18958 24.5329 7.22157C25.2298 7.249 25.9267 7.31299 26.6236 7.3587C26.6765 7.36327 26.7338 7.37698 26.8 7.39069C26.8 8.73452 26.8 10.0738 26.8 11.4496C26.7162 11.4496 26.6324 11.4496 26.5486 11.4496C25.6885 11.4633 24.8284 11.4496 23.9727 11.4953C22.9582 11.5502 22.3848 12.1352 22.3407 13.1911C22.2966 14.2881 22.3275 15.3896 22.3231 16.4866C22.3231 16.5004 22.3319 16.5186 22.3496 16.5598C23.7654 16.5598 25.1901 16.5598 26.6589 16.5598C26.4692 18.091 26.2839 19.5857 26.0943 21.1123C24.8416 21.1123 23.5978 21.1123 22.3363 21.1123C22.3275 21.2083 22.3187 21.2815 22.3187 21.35C22.3187 25.1072 22.3187 28.8645 22.3187 32.6171C22.3187 32.6765 22.3275 32.7314 22.3319 32.7908C20.8234 32.8 19.3105 32.8 17.7977 32.8Z" fill="white"/>
<defs>
<linearGradient id="paint0_linear_39_508" x1="35.0432" y1="4.92461e-07" x2="3.25753" y2="40" gradientUnits="userSpaceOnUse">
<stop stop-color="#038FFF"/>
<stop offset="1" stop-color="#00F1FF"/>
</linearGradient>
</defs>
</svg>
