<svg width="297" height="139" viewBox="0 0 297 139" fill="none" xmlns="http://www.w3.org/2000/svg">
<g clip-path="url(#clip0_39_4222)">
<path d="M120.816 91.3131H117.409V94.2455H120.698V95.2841H117.409V100.196H116.311V90.271H120.816V91.3131Z" fill="#8A97A0"/>
<path d="M131.43 91.3131H127.4V94.2563H131.311V95.2984H127.4V99.1544H131.43V100.196H126.302V90.271H131.43V91.3131Z" fill="#8A97A0"/>
<mask id="mask0_39_4222" style="mask-type:luminance" maskUnits="userSpaceOnUse" x="29" y="31" width="268" height="70">
<path d="M297 31.9075H29.9648V100.628H297V31.9075Z" fill="white"/>
</mask>
<g mask="url(#mask0_39_4222)">
<path d="M138.59 90.271C139.255 90.271 140.25 90.3141 140.991 90.8208C141.567 91.2089 142.072 91.9672 142.072 93.0237C142.072 94.5402 141.08 95.6578 139.581 95.762L142.723 100.196H141.388L138.379 95.8518H138.096V100.196H137.001V90.271H138.59ZM138.1 94.8672H138.797C140.161 94.8672 140.977 94.2132 140.977 93.0524C140.977 92.5026 140.812 91.9528 140.193 91.5934C139.749 91.3419 139.245 91.3095 138.769 91.3095H138.103V94.8672H138.1Z" fill="#8A97A0"/>
</g>
<mask id="mask1_39_4222" style="mask-type:luminance" maskUnits="userSpaceOnUse" x="29" y="31" width="268" height="70">
<path d="M297 31.9075H29.9648V100.628H297V31.9075Z" fill="white"/>
</mask>
<g mask="url(#mask1_39_4222)">
<path d="M150.434 91.3131V100.196H149.336V91.3131H146.935V90.271H152.832V91.3131H150.434Z" fill="#8A97A0"/>
</g>
<mask id="mask2_39_4222" style="mask-type:luminance" maskUnits="userSpaceOnUse" x="29" y="31" width="268" height="70">
<path d="M297 31.9075H29.9648V100.628H297V31.9075Z" fill="white"/>
</mask>
<g mask="url(#mask2_39_4222)">
<path d="M158.972 90.271H157.877V100.196H158.972V90.271Z" fill="#8A97A0"/>
</g>
<mask id="mask3_39_4222" style="mask-type:luminance" maskUnits="userSpaceOnUse" x="29" y="31" width="268" height="70">
<path d="M297 31.9075H29.9648V100.628H297V31.9075Z" fill="white"/>
</mask>
<g mask="url(#mask3_39_4222)">
<path d="M166.175 90.271V99.1544H168.902V100.196H165.08V90.271H166.175Z" fill="#8A97A0"/>
</g>
<mask id="mask4_39_4222" style="mask-type:luminance" maskUnits="userSpaceOnUse" x="29" y="31" width="268" height="70">
<path d="M297 31.9075H29.9648V100.628H297V31.9075Z" fill="white"/>
</mask>
<g mask="url(#mask4_39_4222)">
<path d="M175.038 90.271H173.943V100.196H175.038V90.271Z" fill="#8A97A0"/>
</g>
<mask id="mask5_39_4222" style="mask-type:luminance" maskUnits="userSpaceOnUse" x="29" y="31" width="268" height="70">
<path d="M297 31.9075H29.9648V100.628H297V31.9075Z" fill="white"/>
</mask>
<g mask="url(#mask5_39_4222)">
<path d="M183.576 91.3131V100.196H182.481V91.3131H180.08V90.271H185.977V91.3131H183.576Z" fill="#8A97A0"/>
</g>
<mask id="mask6_39_4222" style="mask-type:luminance" maskUnits="userSpaceOnUse" x="29" y="31" width="268" height="70">
<path d="M297 31.9075H29.9648V100.628H297V31.9075Z" fill="white"/>
</mask>
<g mask="url(#mask6_39_4222)">
<path d="M193.109 95.9237L189.863 90.271H191.137L193.656 94.7055L196.204 90.271H197.478L194.204 95.9237V100.196H193.109V95.9237Z" fill="#8A97A0"/>
</g>
<mask id="mask7_39_4222" style="mask-type:luminance" maskUnits="userSpaceOnUse" x="29" y="31" width="268" height="70">
<path d="M297 31.9075H29.9648V100.628H297V31.9075Z" fill="white"/>
</mask>
<g mask="url(#mask7_39_4222)">
<path d="M209.101 100.196L210.747 89.7211L214.54 98.0978L218.408 89.7031L219.947 100.196H218.823L217.889 93.2931L214.525 100.613L211.205 93.2931L210.228 100.196H209.101Z" fill="#8A97A0"/>
</g>
<mask id="mask8_39_4222" style="mask-type:luminance" maskUnits="userSpaceOnUse" x="29" y="31" width="268" height="70">
<path d="M297 31.9075H29.9648V100.628H297V31.9075Z" fill="white"/>
</mask>
<g mask="url(#mask8_39_4222)">
<path d="M230.922 91.3131H226.889V94.2563H230.8V95.2984H226.889V99.1544H230.922V100.196H225.794V90.271H230.922V91.3131Z" fill="#8A97A0"/>
</g>
<mask id="mask9_39_4222" style="mask-type:luminance" maskUnits="userSpaceOnUse" x="29" y="31" width="268" height="70">
<path d="M297 31.9075H29.9648V100.628H297V31.9075Z" fill="white"/>
</mask>
<g mask="url(#mask9_39_4222)">
<path d="M236.497 90.271H238.512C239.503 90.271 240.913 90.3752 242.158 91.4317C243.063 92.19 243.847 93.4549 243.847 95.2409C243.847 97.3252 242.824 98.4392 242.112 99.0501C241.21 99.8228 240.258 100.196 238.497 100.196H236.497V90.271ZM237.592 99.1544H238.555C239.342 99.1544 240.423 99.0645 241.385 98.2631C242.126 97.6379 242.72 96.6568 242.72 95.2409C242.72 92.8584 241.059 91.3131 238.555 91.3131H237.592V99.1544Z" fill="#8A97A0"/>
</g>
<mask id="mask10_39_4222" style="mask-type:luminance" maskUnits="userSpaceOnUse" x="29" y="31" width="268" height="70">
<path d="M297 31.9075H29.9648V100.628H297V31.9075Z" fill="white"/>
</mask>
<g mask="url(#mask10_39_4222)">
<path d="M250.517 90.271H249.422V100.196H250.517V90.271Z" fill="#8A97A0"/>
</g>
<mask id="mask11_39_4222" style="mask-type:luminance" maskUnits="userSpaceOnUse" x="29" y="31" width="268" height="70">
<path d="M297 31.9075H29.9648V100.628H297V31.9075Z" fill="white"/>
</mask>
<g mask="url(#mask11_39_4222)">
<path d="M264.182 92.4594C263.871 92.1468 263.395 91.773 262.894 91.5358C262.375 91.2951 261.767 91.1477 261.191 91.1477C258.908 91.1477 257.219 92.9948 257.219 95.2839C257.219 97.9791 259.398 99.3303 261.205 99.3303C261.871 99.3303 262.525 99.1363 263.044 98.8704C263.606 98.5865 264.007 98.2163 264.186 98.0366V99.4058C263.087 100.193 261.946 100.372 261.209 100.372C258.274 100.372 256.099 98.1408 256.099 95.2696C256.099 92.3085 258.306 90.1056 261.269 90.1056C261.863 90.1056 263.001 90.1811 264.189 91.0866V92.4594H264.182Z" fill="#8A97A0"/>
</g>
<mask id="mask12_39_4222" style="mask-type:luminance" maskUnits="userSpaceOnUse" x="29" y="31" width="268" height="70">
<path d="M297 31.9075H29.9648V100.628H297V31.9075Z" fill="white"/>
</mask>
<g mask="url(#mask12_39_4222)">
<path d="M270.853 90.271H269.758V100.196H270.853V90.271Z" fill="#8A97A0"/>
</g>
<mask id="mask13_39_4222" style="mask-type:luminance" maskUnits="userSpaceOnUse" x="29" y="31" width="268" height="70">
<path d="M297 31.9075H29.9648V100.628H297V31.9075Z" fill="white"/>
</mask>
<g mask="url(#mask13_39_4222)">
<path d="M276.961 100.196V89.8541L284.665 97.9649V90.271H285.764V100.642L278.059 92.5313V100.196H276.961Z" fill="#8A97A0"/>
</g>
<mask id="mask14_39_4222" style="mask-type:luminance" maskUnits="userSpaceOnUse" x="29" y="31" width="268" height="70">
<path d="M297 31.9075H29.9648V100.628H297V31.9075Z" fill="white"/>
</mask>
<g mask="url(#mask14_39_4222)">
<path d="M297 91.3131H292.971V94.2563H296.882V95.2984H292.971V99.1544H297V100.196H291.872V90.271H297V91.3131Z" fill="#8A97A0"/>
</g>
<mask id="mask15_39_4222" style="mask-type:luminance" maskUnits="userSpaceOnUse" x="29" y="31" width="268" height="70">
<path d="M297 31.9075H29.9648V100.628H297V31.9075Z" fill="white"/>
</mask>
<g mask="url(#mask15_39_4222)">
<mask id="mask16_39_4222" style="mask-type:luminance" maskUnits="userSpaceOnUse" x="29" y="32" width="71" height="69">
<path d="M99.6387 32.1733H29.9609V100.894H99.6387V32.1733Z" fill="white"/>
</mask>
<g mask="url(#mask16_39_4222)">
<mask id="mask17_39_4222" style="mask-type:luminance" maskUnits="userSpaceOnUse" x="29" y="32" width="71" height="69">
<path d="M35.8512 46.2135C31.9258 51.5679 29.9792 57.9178 29.9648 64.4078V64.5516C29.9863 74.6388 34.674 85.0602 43.8739 92.6283C50.2613 97.8821 57.3572 100.045 64.3314 100.717C65.548 100.836 66.7575 100.894 67.9634 100.894H68.0028C76.2974 100.89 84.2771 98.0582 90.7683 91.4029C102.613 79.2529 104.116 55.4418 85.9232 40.8626C78.2798 34.7392 70.3573 32.1733 62.9609 32.1733C51.825 32.1733 41.8808 37.9842 35.8512 46.2135Z" fill="white"/>
</mask>
<g mask="url(#mask17_39_4222)">
<path d="M30.1655 28.2815L107.691 32.3638L103.912 104.789L26.3867 100.707L30.1655 28.2815Z" fill="url(#paint0_linear_39_4222)"/>
</g>
</g>
</g>
<mask id="mask18_39_4222" style="mask-type:luminance" maskUnits="userSpaceOnUse" x="29" y="31" width="268" height="70">
<path d="M297 31.9075H29.9648V100.628H297V31.9075Z" fill="white"/>
</mask>
<g mask="url(#mask18_39_4222)">
<mask id="mask19_39_4222" style="mask-type:luminance" maskUnits="userSpaceOnUse" x="35" y="33" width="69" height="67">
<path d="M103.765 33.5677H35.2109V99.4382H103.765V33.5677Z" fill="white"/>
</mask>
<g mask="url(#mask19_39_4222)">
<mask id="mask20_39_4222" style="mask-type:luminance" maskUnits="userSpaceOnUse" x="35" y="33" width="69" height="67">
<path d="M71.8284 33.5677C66.9654 33.5677 61.9057 34.5668 56.9353 36.7014C39.4336 44.2191 31.4073 60.7604 36.943 77.7833C42.0458 93.4621 61.784 105.429 82.4418 96.2327C104.184 86.5516 107.562 65.371 100.323 50.5618C95.1343 39.9392 84.1058 33.5677 71.8284 33.5677Z" fill="white"/>
</mask>
<g mask="url(#mask20_39_4222)">
<path d="M87.727 0L138.973 86.7097L51.2457 139L0 52.2903L87.727 0Z" fill="url(#paint1_linear_39_4222)"/>
</g>
</g>
</g>
<mask id="mask21_39_4222" style="mask-type:luminance" maskUnits="userSpaceOnUse" x="29" y="31" width="268" height="70">
<path d="M297 31.9075H29.9648V100.628H297V31.9075Z" fill="white"/>
</mask>
<g mask="url(#mask21_39_4222)">
<g opacity="0.7">
<mask id="mask22_39_4222" style="mask-type:luminance" maskUnits="userSpaceOnUse" x="31" y="36" width="70" height="64">
<path d="M100.172 36.1838H31.543V99.4993H100.172V36.1838Z" fill="white"/>
</mask>
<g mask="url(#mask22_39_4222)">
<mask id="mask23_39_4222" style="mask-type:luminance" maskUnits="userSpaceOnUse" x="31" y="36" width="70" height="64">
<path d="M67.9166 36.1838C64.6173 36.1838 61.1607 36.6438 57.593 37.6464C34.688 44.0861 28.1682 63.9731 33.0777 79.1344C37.0604 91.4317 49.2304 99.4921 63.4866 99.4957H63.5045C66.8431 99.4957 70.2962 99.0537 73.7851 98.1193C92.1814 93.1961 102.587 78.3726 99.6888 61.3102C97.4595 48.172 84.742 36.1838 67.9166 36.1838Z" fill="white"/>
</mask>
<g mask="url(#mask23_39_4222)">
<path d="M126.33 47.0149L89.8555 127.644L4.42578 88.6682L40.9 8.03882L126.33 47.0149Z" fill="url(#paint2_linear_39_4222)"/>
</g>
</g>
</g>
</g>
<mask id="mask24_39_4222" style="mask-type:luminance" maskUnits="userSpaceOnUse" x="29" y="31" width="268" height="70">
<path d="M297 31.9075H29.9648V100.628H297V31.9075Z" fill="white"/>
</mask>
<g mask="url(#mask24_39_4222)">
<path d="M290.584 31.8859V48.6535C287.607 46.2243 283.814 44.7653 279.681 44.7653C270.116 44.7653 262.365 52.5526 262.365 62.1583C262.365 71.7639 270.12 79.5512 279.681 79.5512C289.246 79.5512 296.997 71.7639 296.997 62.1583V60.2249V31.8859H290.584ZM279.681 74.398C273.304 74.398 268.137 68.9178 268.137 62.1583C268.137 55.3987 273.304 49.9221 279.681 49.9221C286.058 49.9221 291.225 55.4023 291.225 62.1583C291.228 68.9178 286.058 74.398 279.681 74.398Z" fill="#028FFF"/>
</g>
<mask id="mask25_39_4222" style="mask-type:luminance" maskUnits="userSpaceOnUse" x="29" y="31" width="268" height="70">
<path d="M297 31.9075H29.9648V100.628H297V31.9075Z" fill="white"/>
</mask>
<g mask="url(#mask25_39_4222)">
<path d="M119.005 34.9476C117.155 34.9476 115.655 36.4533 115.655 38.3112C115.655 40.1691 117.155 41.6748 119.005 41.6748C120.855 41.6748 122.354 40.1691 122.354 38.3112C122.35 36.4533 120.851 34.9476 119.005 34.9476Z" fill="#028FFF"/>
</g>
<mask id="mask26_39_4222" style="mask-type:luminance" maskUnits="userSpaceOnUse" x="29" y="31" width="268" height="70">
<path d="M297 31.9075H29.9648V100.628H297V31.9075Z" fill="white"/>
</mask>
<g mask="url(#mask26_39_4222)">
<path d="M153.335 48.9806C152.512 51.0792 151.611 53.3612 150.634 55.8264C149.657 58.2916 148.666 60.7748 147.664 63.2723L144.221 71.8718L143.463 69.9025C142.847 68.3105 142.089 66.4131 141.194 64.2246C140.292 62.0217 139.38 59.7362 138.453 57.3716C137.53 55.0106 136.603 52.682 135.68 50.3857L133.422 44.7653H127.496L140.969 78.4552C141.248 79.1488 141.903 79.598 142.643 79.598H145.846C146.583 79.598 147.241 79.1524 147.517 78.4588L161.047 44.7617H155.039C154.602 45.8003 154.033 47.2054 153.335 48.9806Z" fill="#028FFF"/>
</g>
<mask id="mask27_39_4222" style="mask-type:luminance" maskUnits="userSpaceOnUse" x="29" y="31" width="268" height="70">
<path d="M297 31.9075H29.9648V100.628H297V31.9075Z" fill="white"/>
</mask>
<g mask="url(#mask27_39_4222)">
<path d="M121.774 44.7689H116.231V79.5513H121.774V44.7689Z" fill="#028FFF"/>
</g>
<mask id="mask28_39_4222" style="mask-type:luminance" maskUnits="userSpaceOnUse" x="29" y="31" width="268" height="70">
<path d="M297 31.9075H29.9648V100.628H297V31.9075Z" fill="white"/>
</mask>
<g mask="url(#mask28_39_4222)">
<path d="M213.348 49.9976C211.956 48.4488 210.331 47.2126 208.514 46.325C206.699 45.441 204.713 44.9882 202.613 44.9882C200.151 44.9882 197.836 45.617 195.732 46.8604C193.621 48.1074 191.846 49.8179 190.457 51.9489L190.275 52.2292L190.092 51.9489C188.7 49.8143 186.936 48.1038 184.85 46.8604C182.771 45.6206 180.445 44.9882 177.937 44.9882C175.879 44.9882 173.904 45.4374 172.068 46.325C170.229 47.2126 168.604 48.4488 167.237 49.9976C165.867 51.5501 164.772 53.3828 163.988 55.4383C163.201 57.4974 162.804 59.7542 162.804 62.1475V79.386H168.468V62.1475C168.468 60.6778 168.715 59.2835 169.202 57.9969C169.688 56.7104 170.372 55.5677 171.231 54.5938C172.093 53.62 173.106 52.8437 174.247 52.2939C175.392 51.7405 176.63 51.4566 177.94 51.4566C179.246 51.4566 180.499 51.7369 181.665 52.2939C182.825 52.8473 183.852 53.62 184.718 54.5974C185.576 55.5713 186.26 56.7176 186.746 58.0005C187.233 59.287 187.48 60.685 187.48 62.1511V79.3896H193.145V62.1511C193.145 60.685 193.391 59.287 193.878 58.0005C194.365 56.714 195.045 55.5713 195.907 54.5974C196.769 53.6235 197.786 52.8473 198.924 52.2975C200.065 51.7441 201.307 51.4602 202.616 51.4602C203.923 51.4602 205.175 51.7405 206.342 52.2975C207.505 52.8509 208.532 53.6236 209.394 54.601C210.253 55.5749 210.936 56.7212 211.423 58.0041C211.91 59.2906 212.156 60.6885 212.156 62.1547V79.3932H217.821V62.1547C217.821 59.765 217.424 57.5082 216.636 55.4455C215.842 53.3792 214.74 51.5501 213.348 49.9976Z" fill="#028FFF"/>
</g>
<mask id="mask29_39_4222" style="mask-type:luminance" maskUnits="userSpaceOnUse" x="29" y="31" width="268" height="70">
<path d="M297 31.9075H29.9648V100.628H297V31.9075Z" fill="white"/>
</mask>
<g mask="url(#mask29_39_4222)">
<path d="M240.401 45.1104C230.467 45.1104 223.79 52.0747 223.79 62.4458C223.79 75.0665 232.918 79.5441 240.734 79.5441C245.178 79.5441 249.017 78.1929 252.145 75.5265C253.594 74.2795 254.965 72.6085 256.038 70.7973H249.737C249.168 71.4549 248.62 71.9904 248.069 72.4324C245.972 74.0962 243.668 74.8725 240.819 74.8725C234.371 74.8725 229.633 70.0499 229.551 63.4053L229.548 63.1825H256.596C256.714 58.7911 255.401 53.8428 253.365 51.0829C252.059 49.2897 248.173 45.1104 240.401 45.1104ZM229.923 58.8343L229.97 58.5755C230.918 53.4798 235.305 49.7784 240.397 49.7784C245.614 49.7784 249.805 53.3145 250.825 58.5719L250.875 58.8307H229.923V58.8343Z" fill="#028FFF"/>
</g>
</g>
<defs>
<linearGradient id="paint0_linear_39_4222" x1="29.9421" y1="64.5902" x2="99.7377" y2="68.2326" gradientUnits="userSpaceOnUse">
<stop stop-color="#00F1FF"/>
<stop offset="0.9791" stop-color="#028FFF"/>
<stop offset="1" stop-color="#028FFF"/>
</linearGradient>
<linearGradient id="paint1_linear_39_4222" x1="54.3972" y1="43.9247" x2="73.7252" y2="76.3516" gradientUnits="userSpaceOnUse">
<stop stop-color="#028FFF"/>
<stop offset="0.0209" stop-color="#028FFF"/>
<stop offset="1" stop-color="#00F1FF"/>
</linearGradient>
<linearGradient id="paint2_linear_39_4222" x1="77.7198" y1="40.498" x2="57.6402" y2="84.5093" gradientUnits="userSpaceOnUse">
<stop stop-color="#028FFF"/>
<stop offset="1" stop-color="#00F1FF"/>
</linearGradient>
<clipPath id="clip0_39_4222">
<rect width="297" height="139" fill="white"/>
</clipPath>
</defs>
</svg>
