<svg width="41" height="40" viewBox="0 0 41 40" fill="none" xmlns="http://www.w3.org/2000/svg">
<circle cx="20.4004" cy="20" r="20" fill="url(#paint0_linear_39_1563)"/>
<path d="M29.9992 14.1177C29.9208 14.4563 29.8619 14.8046 29.7639 15.1383C29.5678 15.7909 29.2394 16.3748 28.759 16.8557C27.3276 18.3032 25.9061 19.7605 24.4355 21.1736C22.607 22.9303 19.607 22.8223 17.8668 20.9823C17.6266 20.7271 17.4355 20.4327 17.2051 20.1334C17.5237 19.8341 17.7982 19.525 18.1168 19.2796C18.558 18.941 19.161 19.0097 19.5972 19.4121C19.9845 19.7752 20.4355 20.0009 20.96 20.0647C21.7247 20.153 22.3865 19.9322 22.9306 19.3876C23.7835 18.5387 24.6315 17.6849 25.4845 16.836C25.9796 16.3405 26.4845 15.8498 26.9698 15.3444C27.5972 14.6918 27.8031 13.9116 27.5531 13.0431C27.2982 12.1746 26.71 11.6201 25.8227 11.419C25.0041 11.2325 24.2688 11.4435 23.6708 12.0323C22.7884 12.8959 21.9208 13.7742 21.0482 14.6574C20.9355 14.7703 20.8472 14.785 20.6953 14.731C19.808 14.4219 18.8963 14.3385 17.9649 14.4661C17.9404 14.4415 17.9208 14.4121 17.8963 14.3876C17.96 14.3581 18.0433 14.3385 18.0923 14.2894C19.3668 13.0186 20.6463 11.7477 21.9159 10.4671C22.7149 9.66234 23.661 9.17167 24.7884 9.04409C24.8178 9.03918 24.8472 9.02446 24.8766 9.01465C25.161 9.01465 25.4502 9.01465 25.7345 9.01465C25.7786 9.02446 25.8178 9.04409 25.8619 9.049C27.7492 9.26489 29.3423 10.6486 29.8276 12.4935C29.8963 12.7487 29.9355 13.0088 29.9894 13.2688C29.9992 13.5436 29.9992 13.8282 29.9992 14.1177Z" fill="white"/>
<path d="M22.7794 17.847C22.5147 18.1217 22.2745 18.4014 22.0049 18.6418C21.5441 19.0442 20.8922 19.0099 20.4314 18.5781C19.6226 17.8273 18.4853 17.685 17.5686 18.2346C17.3971 18.3376 17.2353 18.4652 17.0981 18.6075C15.75 19.947 14.4069 21.2915 13.0686 22.6409C12.4265 23.2886 12.2108 24.0786 12.4608 24.9569C12.7108 25.8352 13.3088 26.3896 14.201 26.5957C14.9755 26.7724 15.6863 26.5957 16.2647 26.0511C17.0147 25.3396 17.7353 24.5938 18.4657 23.8627C18.6569 23.6762 18.8383 23.4799 19.0343 23.2984C19.0785 23.2591 19.1667 23.2199 19.2157 23.2395C20.1373 23.5732 21.0883 23.6615 22.0834 23.529C22.049 23.5781 22.0294 23.6075 22.0049 23.6369C20.6569 24.9863 19.3236 26.3504 17.9608 27.6801C15.5147 30.0648 11.402 29.0933 10.299 25.8597C9.6912 24.0835 10.0343 22.4495 11.3334 21.0854C12.7206 19.6281 14.1471 18.2101 15.5981 16.8165C17.6961 14.7998 21.2255 15.2758 22.7353 17.7488C22.7402 17.7832 22.7598 17.8175 22.7794 17.847Z" fill="white"/>
<defs>
<linearGradient id="paint0_linear_39_1563" x1="35.0432" y1="4.92461e-07" x2="3.25753" y2="40" gradientUnits="userSpaceOnUse">
<stop stop-color="#038FFF"/>
<stop offset="1" stop-color="#00F1FF"/>
</linearGradient>
</defs>
</svg>
