<svg width="40" height="40" viewBox="0 0 40 40" fill="none" xmlns="http://www.w3.org/2000/svg">
<circle cx="20" cy="20" r="20" fill="url(#paint0_linear_39_514)"/>
<path d="M28.7952 11.9204C28.6886 12.4184 28.5723 12.9117 28.4706 13.4098C27.7971 16.7252 27.1237 20.0455 26.4551 23.361C26.1499 24.8598 25.8447 26.3587 25.5443 27.8623C25.3796 28.6876 24.367 29.0813 23.6887 28.5737C21.2131 26.7239 18.7422 24.8693 16.2714 23.0195C16.2375 22.9958 16.2084 22.9673 16.1309 22.9009C16.1793 22.8772 16.2278 22.8629 16.2617 22.8345C19.2945 20.1641 22.3274 17.4889 25.3602 14.8137C25.4716 14.7189 25.5782 14.6098 25.6606 14.4912C25.709 14.4201 25.7478 14.2683 25.709 14.2256C25.6509 14.1639 25.5104 14.1307 25.4232 14.1544C25.2633 14.1971 25.0986 14.2778 24.9532 14.3679C23.2043 15.4493 21.4553 16.5403 19.7112 17.6265C17.6376 18.9166 15.564 20.202 13.4953 21.4969C13.3693 21.5775 13.2627 21.587 13.1223 21.5396C11.7076 21.07 10.2929 20.6052 8.87821 20.1356C8.59237 20.0407 8.33075 19.8984 8.15149 19.6565C7.92863 19.3577 7.94801 19.0636 8.23386 18.8265C8.39373 18.6937 8.58752 18.5751 8.78616 18.4992C14.0476 16.4739 19.3139 14.4533 24.5802 12.4327C25.4619 12.0959 26.3388 11.7449 27.2206 11.4176C27.4967 11.318 27.7874 11.2374 28.0781 11.2089C28.4899 11.1662 28.6256 11.2706 28.8 11.6405C28.7952 11.7354 28.7952 11.8255 28.7952 11.9204Z" fill="white"/>
<defs>
<linearGradient id="paint0_linear_39_514" x1="34.6429" y1="4.92461e-07" x2="2.85714" y2="40" gradientUnits="userSpaceOnUse">
<stop stop-color="#038FFF"/>
<stop offset="1" stop-color="#00F1FF"/>
</linearGradient>
</defs>
</svg>
