<svg width="33" height="29" viewBox="0 0 33 29" fill="none" xmlns="http://www.w3.org/2000/svg">
<rect y="19.7991" width="2.19992" height="2.19986" rx="0.504987" fill="#D95E46"/>
<rect x="17.5967" y="19.7988" width="2.19992" height="2.19986" rx="0.504987" fill="#D95E46"/>
<rect y="15.402" width="2.19992" height="2.19986" rx="0.504987" fill="#D95E46"/>
<rect x="2.19678" y="21.9968" width="2.19992" height="2.19986" rx="0.504987" fill="#D95E46"/>
<rect x="2.19678" y="13.1993" width="2.19992" height="2.19986" rx="0.504987" fill="#D95E46"/>
<rect x="4.39551" y="13.1993" width="2.19992" height="2.19986" rx="0.504987" fill="#D95E46"/>
<rect x="6.59619" y="13.1993" width="2.19992" height="2.19986" rx="0.504987" fill="#D95E46"/>
<rect x="6.59619" y="10.9978" width="2.19992" height="2.19986" rx="0.504987" fill="#D95E46"/>
<rect x="8.79834" y="10.9978" width="2.19992" height="2.19986" rx="0.504987" fill="#D95E46"/>
<rect x="6.59619" y="8.79913" width="2.19992" height="2.19986" rx="0.504987" fill="#D95E46"/>
<rect x="8.79834" y="6.60144" width="2.19992" height="2.19986" rx="0.504987" fill="#D95E46"/>
<rect x="11.0063" y="8.79913" width="2.19992" height="2.19986" rx="0.504987" fill="#D95E46"/>
<rect x="13.2031" y="8.79913" width="2.19992" height="2.19986" rx="0.504987" fill="#D95E46"/>
<rect x="13.2031" y="6.60144" width="2.19992" height="2.19986" rx="0.504987" fill="#D95E46"/>
<rect x="15.3999" y="4.39954" width="2.19992" height="2.19986" rx="0.504987" fill="#D95E46"/>
<rect x="17.5967" y="2.19922" width="2.19992" height="2.19986" rx="0.504987" fill="#D95E46"/>
<rect x="19.7974" y="8.79913" width="2.19992" height="2.19986" rx="0.504987" fill="#D95E46"/>
<rect x="17.5967" y="4.39954" width="2.19992" height="2.19986" rx="0.504987" fill="#D95E46"/>
<rect x="19.7974" y="2.1994" width="2.19992" height="2.19986" rx="0.504987" fill="#D95E46"/>
<rect x="28.6016" y="2.19922" width="2.19992" height="2.19986" rx="0.504987" fill="#D95E46"/>
<rect x="30.8003" width="2.19992" height="2.19986" rx="0.504987" fill="#D95E46"/>
<rect x="21.998" y="8.79913" width="2.19992" height="2.19986" rx="0.504987" fill="#D95E46"/>
<rect x="19.7974" y="4.39954" width="2.19992" height="2.19986" rx="0.504987" fill="#D95E46"/>
<rect x="28.6016" y="4.39954" width="2.19992" height="2.19986" rx="0.504987" fill="#D95E46"/>
<rect x="30.8003" y="2.19922" width="2.19992" height="2.19986" rx="0.504987" fill="#D95E46"/>
<rect x="21.998" y="2.19922" width="2.19992" height="2.19986" rx="0.504987" fill="#D95E46"/>
<rect x="24.1982" width="2.19992" height="2.19986" rx="0.504987" fill="#D95E46"/>
<rect x="24.1982" y="8.79913" width="2.19992" height="2.19986" rx="0.504987" fill="#D95E46"/>
<rect x="26.3955" y="10.9978" width="2.19992" height="2.19986" rx="0.504987" fill="#D95E46"/>
<rect x="28.6016" y="10.9978" width="2.19992" height="2.19986" rx="0.504987" fill="#D95E46"/>
<rect x="26.3955" y="6.60144" width="2.19992" height="2.19986" rx="0.504987" fill="#D95E46"/>
<rect x="15.3999" y="8.79913" width="2.19992" height="2.19986" rx="0.504987" fill="#D95E46"/>
<rect x="17.5967" y="10.999" width="2.19992" height="2.19986" rx="0.504987" fill="#D95E46"/>
<rect x="13.2031" y="13.1993" width="2.19992" height="2.19986" rx="0.504987" fill="#D95E46"/>
<rect x="24.1982" y="28.5986" width="2.19992" height="2.19986" rx="0.504987" transform="rotate(-180 24.1982 28.5986)" fill="#D95E46"/>
<rect width="2.19992" height="2.19986" rx="0.504987" transform="matrix(-1 0 0 1 24.1982 13.1993)" fill="#D95E46"/>
<rect width="2.19992" height="2.19986" rx="0.504987" transform="matrix(1 0 0 -1 13.2031 28.5986)" fill="#D95E46"/>
<rect x="13.2031" y="15.402" width="2.19992" height="2.19986" rx="0.504987" fill="#D95E46"/>
<rect x="24.1982" y="26.4006" width="2.19992" height="2.19986" rx="0.504987" transform="rotate(-180 24.1982 26.4006)" fill="#D95E46"/>
<rect width="2.19992" height="2.19986" rx="0.504987" transform="matrix(-1 0 0 1 24.1982 15.402)" fill="#D95E46"/>
<rect width="2.19992" height="2.19986" rx="0.504987" transform="matrix(1 0 0 -1 13.2031 26.4006)" fill="#D95E46"/>
<rect x="11.0063" y="15.402" width="2.19992" height="2.19986" rx="0.504987" fill="#D95E46"/>
<rect x="26.3955" y="26.4006" width="2.19992" height="2.19986" rx="0.504987" transform="rotate(-180 26.3955 26.4006)" fill="#D95E46"/>
<rect width="2.19992" height="2.19986" rx="0.504987" transform="matrix(-1 0 0 1 26.3955 15.402)" fill="#D95E46"/>
<rect width="2.19992" height="2.19986" rx="0.504987" transform="matrix(1 0 0 -1 11.0063 26.4006)" fill="#D95E46"/>
<rect x="13.2031" y="17.5997" width="2.19992" height="2.19986" rx="0.504987" fill="#D95E46"/>
<rect x="24.1982" y="24.201" width="2.19992" height="2.19986" rx="0.504987" transform="rotate(-180 24.1982 24.201)" fill="#D95E46"/>
<rect width="2.19992" height="2.19986" rx="0.504987" transform="matrix(-1 0 0 1 24.1982 17.5997)" fill="#D95E46"/>
<rect width="2.19992" height="2.19986" rx="0.504987" transform="matrix(1 0 0 -1 13.2031 24.201)" fill="#D95E46"/>
<rect x="13.2031" y="19.7988" width="2.19992" height="2.19986" rx="0.504987" fill="#D95E46"/>
<rect x="24.1982" y="21.9968" width="2.19992" height="2.19986" rx="0.504987" transform="rotate(-180 24.1982 21.9968)" fill="#D95E46"/>
<rect width="2.19992" height="2.19986" rx="0.504987" transform="matrix(-1 0 0 1 24.1982 19.7988)" fill="#D95E46"/>
<rect width="2.19992" height="2.19986" rx="0.504987" transform="matrix(1 0 0 -1 13.2031 21.9968)" fill="#D95E46"/>
<rect x="11.0063" y="17.5997" width="2.19992" height="2.19986" rx="0.504987" fill="#D95E46"/>
<rect x="26.3955" y="24.201" width="2.19992" height="2.19986" rx="0.504987" transform="rotate(-180 26.3955 24.201)" fill="#D95E46"/>
<rect width="2.19992" height="2.19986" rx="0.504987" transform="matrix(-1 0 0 1 26.3955 17.5997)" fill="#D95E46"/>
<rect width="2.19992" height="2.19986" rx="0.504987" transform="matrix(1 0 0 -1 11.0063 24.201)" fill="#D95E46"/>
<rect x="15.3999" y="13.1993" width="2.19992" height="2.19986" rx="0.504987" fill="#D95E46"/>
<rect x="21.998" y="28.5986" width="2.19992" height="2.19986" rx="0.504987" transform="rotate(-180 21.998 28.5986)" fill="#D95E46"/>
<rect width="2.19992" height="2.19986" rx="0.504987" transform="matrix(-1 0 0 1 21.998 13.1993)" fill="#D95E46"/>
<rect width="2.19992" height="2.19986" rx="0.504987" transform="matrix(1 0 0 -1 15.3999 28.5986)" fill="#D95E46"/>
<rect x="15.3999" y="15.402" width="2.19992" height="2.19986" rx="0.504987" fill="#D95E46"/>
<rect x="21.998" y="26.4006" width="2.19992" height="2.19986" rx="0.504987" transform="rotate(-180 21.998 26.4006)" fill="#D95E46"/>
<rect width="2.19992" height="2.19986" rx="0.504987" transform="matrix(-1 0 0 1 21.998 15.402)" fill="#D95E46"/>
<rect width="2.19992" height="2.19986" rx="0.504987" transform="matrix(1 0 0 -1 15.3999 26.4006)" fill="#D95E46"/>
<rect x="17.5967" y="15.402" width="2.19992" height="2.19986" rx="0.504987" fill="#D95E46"/>
<rect x="19.7974" y="26.4006" width="2.19992" height="2.19986" rx="0.504987" transform="rotate(-180 19.7974 26.4006)" fill="#D95E46"/>
<rect x="15.3999" y="17.5997" width="2.19992" height="2.19986" rx="0.504987" fill="#D95E46"/>
<rect x="21.998" y="24.201" width="2.19992" height="2.19986" rx="0.504987" transform="rotate(-180 21.998 24.201)" fill="#D95E46"/>
<rect width="2.19992" height="2.19986" rx="0.504987" transform="matrix(-1 0 0 1 21.998 17.5997)" fill="#D95E46"/>
<rect width="2.19992" height="2.19986" rx="0.504987" transform="matrix(1 0 0 -1 15.3999 24.201)" fill="#D95E46"/>
<rect x="11.0063" y="4.39954" width="2.19992" height="2.19986" rx="0.504987" fill="#D95E46"/>
<rect x="8.79834" y="4.39954" width="2.19992" height="2.19986" rx="0.504987" fill="#D95E46"/>
<rect x="11.0063" y="2.19922" width="2.19992" height="2.19986" rx="0.504987" fill="#D95E46"/>
<rect x="8.79834" y="2.19922" width="2.19992" height="2.19986" rx="0.504987" fill="#D95E46"/>
<rect x="11.0063" width="2.19992" height="2.19986" rx="0.504987" fill="#D95E46"/>
<rect x="2.19678" y="15.402" width="2.19992" height="2.19986" rx="0.504987" fill="#D95E46"/>
</svg>
