<svg width="41" height="40" viewBox="0 0 41 40" fill="none" xmlns="http://www.w3.org/2000/svg">
<circle cx="20.2002" cy="20" r="20" fill="url(#paint0_linear_39_511)"/>
<path d="M14.9805 31.9999C14.4769 31.8019 14.3354 31.3776 14.3241 30.891C14.3128 30.1442 14.3185 29.3917 14.3241 28.6449C14.3241 28.5601 14.3241 28.4752 14.3241 28.3847C13.9846 28.2545 13.6451 28.1414 13.3226 27.9943C11.5006 27.1852 10.3462 25.7765 9.69551 23.9264C9.30508 22.8118 9.11269 21.6577 9.05611 20.4865C8.96557 18.6534 8.97123 16.8203 9.27113 14.9985C9.42391 14.0537 9.68985 13.1485 10.0916 12.2772C10.7989 10.7156 12.0042 9.70857 13.5659 9.08622C14.9635 8.53177 16.4121 8.22625 17.9059 8.09047C19.9373 7.90942 21.963 7.98863 23.9661 8.37901C24.8941 8.56006 25.7938 8.83163 26.6708 9.18806C28.4023 9.90093 29.5227 11.1739 30.1621 12.9108C30.6317 14.1895 30.8581 15.519 30.9429 16.8656C31.0674 18.7552 30.9656 20.6449 30.6657 22.5176C30.4167 24.0735 29.8339 25.4879 28.7192 26.6421C27.7799 27.6096 26.6086 28.1301 25.3298 28.4808C23.0607 29.0975 20.7464 29.239 18.4152 29.0862C18.2284 29.0749 18.1209 29.1258 18.0021 29.2673C17.4872 29.884 16.9779 30.512 16.4347 31.1004C16.1292 31.4342 15.75 31.7001 15.4049 31.9999C15.2634 31.9999 15.122 31.9999 14.9805 31.9999ZM14.9692 28.8939C14.9635 28.8939 14.9522 28.8939 14.9465 28.8939C14.9465 29.4879 14.9409 30.082 14.9465 30.676C14.9465 30.8627 14.89 31.1117 15.105 31.1965C15.3257 31.2871 15.4558 31.0721 15.5746 30.925C16.5196 29.7991 17.4532 28.6732 18.3982 27.5473C18.4661 27.4625 18.5962 27.3776 18.6924 27.3833C20.3786 27.4738 22.0479 27.3719 23.7001 27.0268C24.5942 26.8401 25.4882 26.6534 26.303 26.2178C27.7686 25.4313 28.5438 24.1414 28.9342 22.5799C29.2058 21.4879 29.2511 20.3734 29.2907 19.2588C29.3529 17.5502 29.2567 15.8585 28.804 14.2008C28.2891 12.2941 27.1292 11.0325 25.2166 10.4554C23.3889 9.90659 21.5273 9.67462 19.6261 9.69725C17.9059 9.71423 16.2197 9.92356 14.6014 10.5459C13.8262 10.8458 13.0906 11.2248 12.5134 11.8415C11.5006 12.9221 11.0705 14.263 10.8498 15.6888C10.6348 17.0749 10.6235 18.4724 10.6744 19.8698C10.7027 20.7015 10.7876 21.5388 10.9573 22.3535C11.4157 24.5205 12.6266 26.065 14.8051 26.7496C14.9409 26.7892 14.9692 26.8571 14.9692 26.9816C14.9692 27.6152 14.9692 28.2545 14.9692 28.8939Z" fill="white"/>
<path d="M18.1666 15.9942C18.127 16.3054 18.0194 16.5543 17.7875 16.7411C17.6234 16.8768 17.4593 17.007 17.3008 17.1428C17.0858 17.3351 16.9783 17.5897 17.0688 17.8613C17.663 19.6321 18.7098 21.0013 20.5318 21.6519C21.075 21.85 21.29 21.7821 21.6408 21.3238C21.7201 21.2163 21.7993 21.1145 21.8842 21.007C22.1897 20.6166 22.6367 20.5034 23.0724 20.7411C23.8816 21.188 24.6228 21.7312 25.2849 22.3818C25.5339 22.6251 25.5848 22.9419 25.449 23.2474C25.1434 23.9546 24.6794 24.5317 23.9891 24.8938C23.6722 25.0579 23.3384 25.0918 22.9932 24.956C19.0832 23.4341 16.1408 20.8938 14.5169 16.956C14.3301 16.5091 14.1378 16.0678 13.9454 15.6265C13.7983 15.2814 13.8209 14.9362 13.968 14.6024C14.2962 13.8839 14.862 13.386 15.5637 13.0579C15.9089 12.8938 16.2597 12.9787 16.486 13.2899C16.9953 13.9858 17.4876 14.6986 17.9629 15.4172C18.076 15.5925 18.1043 15.8019 18.1666 15.9942Z" fill="white"/>
<path d="M20.1301 12.3111C22.8235 12.3959 25.0076 14.1838 25.6527 16.8825C25.7998 17.4935 25.8225 18.1329 25.896 18.7552C25.9186 18.9476 25.8507 19.1003 25.6301 19.123C25.4377 19.1399 25.3188 19.0268 25.3132 18.7778C25.2906 17.85 25.1604 16.9447 24.7756 16.0904C23.8986 14.1215 22.3482 13.1088 20.2206 12.9278C20.0905 12.9165 19.9547 12.9221 19.8245 12.9051C19.6378 12.8825 19.5472 12.7694 19.5586 12.5826C19.5699 12.3903 19.6774 12.3054 19.8641 12.3054C19.9547 12.3111 20.0395 12.3111 20.1301 12.3111Z" fill="white"/>
<path d="M24.3511 17.9293C24.3511 18.0537 24.3567 18.1386 24.3511 18.2235C24.3341 18.3989 24.2379 18.5007 24.0625 18.5007C23.8871 18.5007 23.7909 18.3989 23.7739 18.2235C23.7513 17.9462 23.7513 17.6633 23.706 17.3861C23.4287 15.7737 22.2857 14.7044 20.6618 14.5177C20.5542 14.5063 20.4467 14.4894 20.3392 14.4781C20.1355 14.4498 20.0563 14.3253 20.0789 14.1329C20.1016 13.9462 20.2261 13.8614 20.4071 13.8783C22.9251 14.082 24.2945 15.8133 24.3511 17.9293Z" fill="white"/>
<path d="M22.8688 17.6181C22.8518 17.8444 22.75 17.9802 22.5746 17.9858C22.3709 17.9915 22.286 17.8613 22.2634 17.6746C22.2464 17.5445 22.2407 17.4087 22.2124 17.2786C22.0653 16.5657 21.6636 16.2036 20.9393 16.1188C20.894 16.1131 20.8431 16.1131 20.7978 16.1074C20.6054 16.0792 20.4979 15.966 20.5206 15.7736C20.5375 15.5926 20.6507 15.4964 20.8431 15.5077C21.6692 15.5587 22.4218 15.9151 22.7104 16.8656C22.7839 17.1089 22.8179 17.3635 22.8688 17.6181Z" fill="white"/>
<defs>
<linearGradient id="paint0_linear_39_511" x1="34.8431" y1="4.92461e-07" x2="3.05734" y2="40" gradientUnits="userSpaceOnUse">
<stop stop-color="#038FFF"/>
<stop offset="1" stop-color="#00F1FF"/>
</linearGradient>
</defs>
</svg>
