<svg width="152" height="18" viewBox="0 0 152 18" fill="none" xmlns="http://www.w3.org/2000/svg">
<path d="M5.07955 17.4545L0 0H4.66193L7.29545 11.4375H7.44034L10.4489 0H14.25L17.2585 11.4631H17.4034L20.0455 0H24.6989L19.6278 17.4545H15.5625L12.4176 6.86932H12.2812L9.13636 17.4545H5.07955Z" fill="black"/>
<path d="M26.4418 17.4545V0H38.6122V3.42614H30.6605V7.00568H37.9901V10.4403H30.6605V14.0284H38.6122V17.4545H26.4418Z" fill="black"/>
<path d="M41.2543 17.4545V0H48.5327C49.8395 0 50.9332 0.184659 51.8139 0.553977C52.7003 0.923295 53.3651 1.44034 53.8082 2.10511C54.2571 2.76989 54.4815 3.53977 54.4815 4.41477C54.4815 5.07955 54.3423 5.6733 54.0639 6.19602C53.7855 6.71307 53.402 7.14205 52.9134 7.48295C52.4247 7.82386 51.8594 8.0625 51.2173 8.19886V8.36932C51.9219 8.40341 52.5724 8.59375 53.169 8.94034C53.7713 9.28693 54.2543 9.76989 54.6179 10.3892C54.9815 11.0028 55.1634 11.7301 55.1634 12.571C55.1634 13.5085 54.9247 14.3466 54.4474 15.0852C53.9702 15.8182 53.2798 16.3977 52.3764 16.8239C51.473 17.2443 50.3764 17.4545 49.0866 17.4545H41.2543ZM45.473 14.054H48.081C48.9957 14.054 49.669 13.8807 50.1009 13.5341C50.5384 13.1875 50.7571 12.7045 50.7571 12.0852C50.7571 11.6364 50.652 11.25 50.4418 10.9261C50.2315 10.5966 49.9332 10.3438 49.5469 10.1676C49.1605 9.9858 48.6974 9.89489 48.1577 9.89489H45.473V14.054ZM45.473 7.17614H47.8082C48.2685 7.17614 48.6776 7.09943 49.0355 6.94602C49.3935 6.79261 49.6719 6.57102 49.8707 6.28125C50.0753 5.99148 50.1776 5.64205 50.1776 5.23295C50.1776 4.64773 49.9702 4.1875 49.5554 3.85227C49.1406 3.51705 48.581 3.34943 47.8764 3.34943H45.473V7.17614Z" fill="black"/>
<path d="M57.1918 17.4545V0H64.402C65.7088 0 66.8367 0.235795 67.7855 0.707386C68.7401 1.1733 69.4759 1.84375 69.9929 2.71875C70.5099 3.58807 70.7685 4.61932 70.7685 5.8125C70.7685 7.02273 70.5043 8.05114 69.9759 8.89773C69.4474 9.73864 68.6974 10.3807 67.7259 10.8239C66.7543 11.2614 65.6037 11.4801 64.2741 11.4801H59.7145V8.15625H63.4901C64.1264 8.15625 64.6577 8.07386 65.0838 7.90909C65.5156 7.73864 65.8423 7.48295 66.0639 7.14205C66.2855 6.79545 66.3963 6.35227 66.3963 5.8125C66.3963 5.27273 66.2855 4.8267 66.0639 4.47443C65.8423 4.11648 65.5156 3.84943 65.0838 3.6733C64.652 3.49148 64.1207 3.40057 63.4901 3.40057H61.4105V17.4545H57.1918ZM67.0185 9.47727L71.3651 17.4545H66.7628L62.5014 9.47727H67.0185Z" fill="black"/>
<path d="M76.858 17.4545H72.3239L78.2131 0H83.8295L89.7188 17.4545H85.1847L81.0852 4.39773H80.9489L76.858 17.4545ZM76.2528 10.5852H85.7301V13.7898H76.2528V10.5852Z" fill="black"/>
<path d="M91.598 17.4545V0H98.8082C100.115 0 101.243 0.235795 102.192 0.707386C103.146 1.1733 103.882 1.84375 104.399 2.71875C104.916 3.58807 105.175 4.61932 105.175 5.8125C105.175 7.02273 104.911 8.05114 104.382 8.89773C103.854 9.73864 103.104 10.3807 102.132 10.8239C101.161 11.2614 100.01 11.4801 98.6804 11.4801C98.6804 11.4801 95.1697 12.919 94.1207 11.4801C93.3561 10.4312 94.1207 8.15625 94.1207 8.15625H97.8963C98.5327 8.15625 99.0639 8.07386 99.4901 7.90909C99.9219 7.73864 100.249 7.48295 100.47 7.14205C100.692 6.79545 100.803 6.35227 100.803 5.8125C100.803 5.27273 100.692 4.8267 100.47 4.47443C100.249 4.11648 99.9219 3.84943 99.4901 3.6733C99.0582 3.49148 98.527 3.40057 97.8963 3.40057H95.8168V17.4545H91.598ZM101.425 9.47727L105.771 17.4545H101.169L96.9077 9.47727H101.425Z" fill="black"/>
<path d="M111.707 0V17.4545H107.489V0H111.707Z" fill="black"/>
<path d="M124.915 0H129.126V11.2585C129.126 12.5597 128.816 13.6932 128.197 14.6591C127.577 15.6193 126.714 16.3636 125.606 16.892C124.498 17.4148 123.211 17.6761 121.745 17.6761C120.262 17.6761 118.967 17.4148 117.859 16.892C116.751 16.3636 115.89 15.6193 115.276 14.6591C114.663 13.6932 114.356 12.5597 114.356 11.2585V0H118.575V10.892C118.575 11.4943 118.705 12.0312 118.967 12.5028C119.234 12.9744 119.606 13.3438 120.083 13.6108C120.56 13.8778 121.114 14.0114 121.745 14.0114C122.376 14.0114 122.927 13.8778 123.398 13.6108C123.876 13.3438 124.248 12.9744 124.515 12.5028C124.782 12.0312 124.915 11.4943 124.915 10.892V0Z" fill="black"/>
<path d="M131.77 0H136.994L141.426 10.8068H141.631L146.062 0H151.287V17.4545H147.179V6.73295H147.034L142.841 17.3438H140.216L136.023 6.6733H135.878V17.4545H131.77V0Z" fill="black"/>
</svg>
