<svg width="140" height="16" viewBox="0 0 140 16" fill="none" xmlns="http://www.w3.org/2000/svg">
<path d="M1.49012e-08 -2.38419e-07H2.58L5.68 12.48L9.04 -2.38419e-07H11.62L14.72 12.48L18.08 -2.38419e-07H20.66L16.06 16H13.28L10.28 4.06L7.02 16H4.24L1.49012e-08 -2.38419e-07ZM34.1562 2.52H25.1563V6.76L32.8563 6.74V9.26H25.1563V13.5L34.1562 13.48V16H22.6563V0.0199995H34.1562V2.52ZM36.7578 16V-2.38419e-07H43.4178C46.7778 -2.38419e-07 48.5178 1.5 48.5178 3.72C48.5178 5.44 47.6378 6.74 45.6178 6.98C48.1778 7.18 50.5978 8.14 50.5978 11.06C50.5978 14.68 47.1778 16 43.4178 16H36.7578ZM39.3178 5.9H43.4178C45.2378 5.9 45.9378 5.18 45.9378 4.16C45.9378 3.22 45.2378 2.58 43.4178 2.58H39.3178V5.9ZM39.3178 13.44H43.4178C46.9578 13.44 47.7378 12.32 47.7378 10.84C47.7378 9.48 46.8778 8.4 43.4178 8.4H39.3178V13.44ZM66.2177 5.2C66.2177 7.38 64.9177 8.66 63.1377 9.36L65.9977 16H63.1777L60.5777 9.98C60.0377 10.04 59.4977 10.06 58.9577 10.06H55.1377V16H52.5977V-2.38419e-07H58.9577C62.4377 -2.38419e-07 66.2177 0.799999 66.2177 5.2ZM55.1377 7.62H58.9577C62.2977 7.62 63.3577 6.84 63.3577 5.12C63.3577 3.48 62.2977 2.54 58.9577 2.54H55.1377V7.62ZM82.0427 16L80.3827 12.16H72.6427L70.9827 16H68.2227L75.1027 -2.38419e-07H77.8827L84.8027 16H82.0427ZM73.7427 9.6L79.2627 9.58L76.5027 3.18L73.7427 9.6ZM100.417 5.2C100.417 7.38 99.1169 8.66 97.3369 9.36L100.197 16H97.3769L94.7769 9.98C94.2369 10.04 93.6969 10.06 93.1569 10.06H89.3369V16H86.7969V-2.38419e-07H93.1569C96.6369 -2.38419e-07 100.417 0.799999 100.417 5.2ZM89.3369 7.62H93.1569C96.4969 7.62 97.5569 6.84 97.5569 5.12C97.5569 3.48 96.4969 2.54 93.1569 2.54H89.3369V7.62ZM102.422 -2.38419e-07H104.922V16H102.422V-2.38419e-07ZM107.91 8.72V-2.38419e-07H110.41V8.72C110.41 12.34 111.51 13.5 114.13 13.5C116.65 13.5 117.63 12.34 117.63 8.72V-2.38419e-07H120.13V8.72C120.13 13.34 118.89 16 114.13 16C109.15 16 107.91 13.34 107.91 8.72ZM139.845 -2.38419e-07V16H137.325V5.7L132.905 16H130.205L125.665 5.62V16H123.125V-2.38419e-07H125.685L131.545 12.98L137.285 -2.38419e-07H139.845Z" fill="black"/>
</svg>
